<svg xmlns="http://www.w3.org/2000/svg" viewBox="0 0 1600 1400" width="1600" height="1400">
  <defs>
    <style>
      .box { rx: 10; ry: 10; stroke-width: 1.8; }
      .text { font-family: -apple-system, BlinkMacSystemFont, "Segoe UI", Roboto, sans-serif; font-size: 16px; font-weight: 600; text-anchor: middle; dominant-baseline: middle; }
      .small { font-size: 13px; font-weight: 400; }
      .tiny { font-size: 11px; font-weight: 400; }
      .title { font-size: 26px; font-weight: 700; }
      .subtitle { font-size: 15px; font-weight: 400; fill: #64748b; text-anchor: middle; }
      .arrow { stroke: #94a3b8; stroke-width: 2.5; fill: none; marker-end: url(#arrowhead); }
    </style>
    <marker id="arrowhead" markerWidth="12" markerHeight="8" refX="11" refY="4" orient="auto">
      <polygon points="0 0, 12 4, 0 8" fill="#94a3b8" />
    </marker>
  </defs>
  <rect width="1600" height="1400" fill="#f8fafc" rx="16"/>

  <!-- Title -->
  <text x="800" y="45" class="title" fill="#0f172a">IB Neuroscience — Concept Map</text>
  <text x="800" y="72" class="subtitle">Structure determines function — dysfunction reveals normal function</text>

  <!-- ===== LEVEL 1 — Development ===== -->
  <rect x="460" y="100" width="680" height="50" class="box" fill="#dbeafe" stroke="#3b82f6"/>
  <text x="800" y="121" class="text" fill="#1e40af">Development: Neural Plate → Neural Tube (→ CNS) + Neural Crest (→ PNS, melanocytes, facial bones)</text>
  <text x="800" y="140" class="text tiny" fill="#3b82f6">14,000 genes control brain development | Shh (ventral, motor) vs BMP/Wnt (dorsal, sensory) | Hox genes pattern hindbrain</text>

  <line x1="600" y1="150" x2="280" y2="210" class="arrow"/>
  <line x1="800" y1="150" x2="800" y2="210" class="arrow"/>
  <line x1="1000" y1="150" x2="1320" y2="210" class="arrow"/>

  <!-- ===== LEVEL 2 — CNS / PNS ===== -->
  <rect x="90" y="215" width="380" height="60" class="box" fill="#dcfce7" stroke="#16a34a"/>
  <text x="280" y="238" class="text" fill="#166534">CNS — Brain + Spinal Cord</text>
  <text x="280" y="258" class="text small" fill="#166534">Nuclei (cell bodies) | Tracts (axon bundles) | CNS Glia: Astrocytes, Oligodendrocytes, Microglia, Ependyma</text>

  <rect x="610" y="215" width="380" height="60" class="box" fill="#dcfce7" stroke="#16a34a"/>
  <text x="800" y="238" class="text" fill="#166534">Neurons — Structural &amp; Functional Units</text>
  <text x="800" y="258" class="text small" fill="#166534">Cell body (soma, Nissl bodies) | Dendrites (receive, spines) | Axon (conduct AP, no Nissl) | Synapse (vesicles, cleft, receptors)</text>

  <rect x="1130" y="215" width="380" height="60" class="box" fill="#fef3c7" stroke="#d97706"/>
  <text x="1320" y="238" class="text" fill="#92400e">PNS — Nerves + Ganglia</text>
  <text x="1320" y="258" class="text small" fill="#92400e">Schwann cells (myelinate ONE axon) | Dorsal root ganglia (sensory) | Cranial + Spinal nerves | Nerve = axon bundle + connective tissue</text>

  <line x1="200" y1="275" x2="200" y2="335" class="arrow"/>
  <line x1="360" y1="275" x2="360" y2="335" class="arrow"/>
  <line x1="800" y1="275" x2="800" y2="335" class="arrow"/>

  <!-- ===== LEVEL 3 — Myelin / Glia ===== -->
  <rect x="90" y="340" width="270" height="60" class="box" fill="#fce7f3" stroke="#db2777"/>
  <text x="225" y="360" class="text" fill="#9d174d">CNS Myelination</text>
  <text x="225" y="380" class="text small" fill="#be185d">ONE Oligodendrocyte → MANY axons</text>
  <text x="225" y="396" class="text small" fill="#be185d">More glycolipid | No basal lamina | No regeneration</text>

  <rect x="390" y="340" width="270" height="60" class="box" fill="#fef9c3" stroke="#ca8a04"/>
  <text x="525" y="360" class="text" fill="#92400e">PNS Myelination</text>
  <text x="525" y="380" class="text small" fill="#a16207">ONE Schwann cell → ONE axon segment</text>
  <text x="525" y="396" class="text small" fill="#a16207">More phospholipid | Has basal lamina + endoneurium | Can regenerate</text>

  <rect x="690" y="340" width="280" height="60" class="box" fill="#fce7f3" stroke="#db2777"/>
  <text x="830" y="360" class="text" fill="#9d174d">Nodes of Ranvier &amp; Saltatory Conduction</text>
  <text x="830" y="380" class="text small" fill="#be185d">Gaps between myelin segments | Na+ channels concentrated at nodes</text>
  <text x="830" y="396" class="text small" fill="#be185d">Action potential "jumps" node-to-node → 10–100× faster conduction</text>

  <rect x="1000" y="340" width="280" height="60" class="box" fill="#e0e7ff" stroke="#6366f1"/>
  <text x="1140" y="360" class="text" fill="#3730a3">Glial Cells (10:1 over neurons)</text>
  <text x="1140" y="380" class="text small" fill="#4338ca">Astrocytes: recycle NTs, modulate synapses, BBB, K+ balance</text>
  <text x="1140" y="396" class="text small" fill="#4338ca">Microglia: CNS immune cells | Ependyma: line ventricles, produce CSF</text>

  <line x1="225" y1="400" x2="120" y2="470" class="arrow"/>
  <line x1="525" y1="400" x2="525" y2="470" class="arrow"/>
  <line x1="830" y1="400" x2="830" y2="470" class="arrow"/>
  <line x1="1140" y1="400" x2="1000" y2="470" class="arrow"/>

  <!-- ===== LEVEL 4 — Spinal Cord ===== -->
  <rect x="40" y="475" width="260" height="65" class="box" fill="#ecfccb" stroke="#65a30d"/>
  <text x="170" y="498" class="text" fill="#3f6212">Spinal Cord Structure</text>
  <text x="170" y="518" class="text small" fill="#4d7c0f">6 functional regions (C1–Co2) | Central grey matter (butterfly shape)</text>
  <text x="170" y="534" class="text small" fill="#4d7c0f">Dorsal horn (sensory, laminae 1–4) | Ventral horn (motor, lamina 9)</text>

  <rect x="330" y="475" width="280" height="65" class="box" fill="#ecfccb" stroke="#65a30d"/>
  <text x="470" y="498" class="text" fill="#3f6212">Ascending &amp; Descending Tracts</text>
  <text x="470" y="518" class="text small" fill="#4d7c0f">Corticospinal (motor) — crosses at pyramidal decussation</text>
  <text x="470" y="534" class="text small" fill="#4d7c0f">DC-ML (touch/proprioception) — crosses in hindbrain</text>

  <rect x="640" y="475" width="280" height="65" class="box" fill="#ecfccb" stroke="#65a30d"/>
  <text x="780" y="498" class="text" fill="#3f6212">Spinothalamic &amp; Spinocerebellar</text>
  <text x="780" y="518" class="text small" fill="#4d7c0f">Spinothalamic (pain/temp) — crosses in spinal cord (anterior white commissure)</text>
  <text x="780" y="534" class="text small" fill="#4d7c0f">Spinocerebellar (proprioception to cerebellum) — mostly ipsilateral</text>

  <rect x="950" y="475" width="280" height="65" class="box" fill="#ecfccb" stroke="#65a30d"/>
  <text x="1090" y="498" class="text" fill="#3f6212">Spinal Nerves &amp; Dermatomes</text>
  <text x="1090" y="518" class="text small" fill="#4d7c0f">8 cervical (7 vertebrae) | 12 thoracic | 5 lumbar | 5 sacral | variable coccygeal</text>
  <text x="1090" y="534" class="text small" fill="#4d7c0f">Each spinal nerve supplies a specific dermatome (skin strip) from C1 to Co</text>

  <line x1="170" y1="540" x2="170" y2="610" class="arrow"/>
  <line x1="470" y1="540" x2="470" y2="610" class="arrow"/>
  <line x1="1090" y1="540" x2="1090" y2="610" class="arrow"/>

  <!-- ===== LEVEL 5 — Brainstem / Cerebellum ===== -->
  <rect x="40" y="615" width="260" height="60" class="box" fill="#fce7f3" stroke="#db2777"/>
  <text x="170" y="638" class="text" fill="#9d174d">Brainstem = Midbrain + Hindbrain</text>
  <text x="170" y="655" class="text small" fill="#be185d">NOT "midbrain-pons-medulla" (outdated)</text>
  <text x="170" y="670" class="text small" fill="#be185d">CN 3–12 nuclei | Vital centers | Corridor for long pathways</text>

  <rect x="330" y="615" width="280" height="60" class="box" fill="#fce7f3" stroke="#db2777"/>
  <text x="470" y="638" class="text" fill="#9d174d">Cerebellum (~80% of all brain neurons!)</text>
  <text x="470" y="655" class="text small" fill="#be185d">3 peduncles: Inferior (in), Middle (in, pontine), Superior (out)</text>
  <text x="470" y="670" class="text small" fill="#be185d">Ipsilateral connection (double decussation) | Coordinates movement</text>

  <rect x="640" y="615" width="280" height="60" class="box" fill="#fce7f3" stroke="#db2777"/>
  <text x="780" y="638" class="text" fill="#9d174d">Cranial Nerves (CN 3–12)</text>
  <text x="780" y="655" class="text small" fill="#be185d">Functional classification: SE, VE, BE, SA, VA, SS</text>
  <text x="780" y="670" class="text small" fill="#be185d">CN 1 (Olfactory) &amp; CN 2 (Optic) — forebrain, not brainstem</text>

  <rect x="950" y="615" width="280" height="60" class="box" fill="#fce7f3" stroke="#db2777"/>
  <text x="1090" y="638" class="text" fill="#9d174d">Precerebellar Nuclei</text>
  <text x="1090" y="655" class="text small" fill="#be185d">Inferior olive (climbing fibers, timing) | Pontine nuclei (mossy fibers, massive)</text>
  <text x="1090" y="670" class="text small" fill="#be185d">External cuneate nucleus (upper limb proprioception → cerebellum)</text>

  <line x1="170" y1="675" x2="120" y2="750" class="arrow"/>
  <line x1="470" y1="675" x2="470" y2="750" class="arrow"/>
  <line x1="780" y1="675" x2="780" y2="750" class="arrow"/>

  <!-- ===== LEVEL 6 — Forebrain ===== -->
  <rect x="40" y="755" width="200" height="70" class="box" fill="#fce7f3" stroke="#db2777"/>
  <text x="140" y="778" class="text" fill="#9d174d">Diencephalon</text>
  <text x="140" y="798" class="text small" fill="#be185d">Thalamus: sensory relay (all senses except smell)</text>
  <text x="140" y="814" class="text small" fill="#be185d">VPL, DLG, MG, VL nuclei | Habenular nuclei → pineal</text>

  <rect x="270" y="755" width="230" height="70" class="box" fill="#fce7f3" stroke="#db2777"/>
  <text x="385" y="778" class="text" fill="#9d174d">Hypothalamus</text>
  <text x="385" y="798" class="text small" fill="#be185d">Most rostral part of neural tube (NOT "under thalamus"!)</text>
  <text x="385" y="814" class="text small" fill="#be185d">SCN (circadian clock) | VMH (feeding/defense) | Mammillary body (foraging)</text>

  <rect x="530" y="755" width="230" height="70" class="box" fill="#fce7f3" stroke="#db2777"/>
  <text x="645" y="778" class="text" fill="#9d174d">Telencephalon → Cortex</text>
  <text x="645" y="798" class="text small" fill="#be185d">Neocortex (6 layers) | Hippocampus (memory formation)</text>
  <text x="645" y="814" class="text small" fill="#be185d">180 distinct Brodmann areas | M1 (4), S1 (3,1,2), V1 (17), A1 (41)</text>

  <rect x="790" y="755" width="230" height="70" class="box" fill="#fce7f3" stroke="#db2777"/>
  <text x="905" y="778" class="text" fill="#9d174d">Basal Ganglia &amp; Amygdala</text>
  <text x="905" y="798" class="text small" fill="#be185d">Striatum (caudate + putamen + accumbens) | Pallidum (globus pallidus)</text>
  <text x="905" y="814" class="text small" fill="#be185d">Amygdala (fear, social hierarchy) | Substantia nigra (dopamine → striatum)</text>

  <rect x="1050" y="755" width="250" height="70" class="box" fill="#fce7f3" stroke="#db2777"/>
  <text x="1175" y="778" class="text" fill="#9d174d">Commissures &amp; White Matter</text>
  <text x="1175" y="798" class="text small" fill="#be185d">4 commissures: Corpus callosum (largest), Anterior, Hippocampal, Posterior</text>
  <text x="1175" y="814" class="text small" fill="#be185d">Projection fibers (internal capsule) | Association fibers | Limbic system = discredited term!</text>

  <!-- ===== LEVEL 7 — Blood Supply / CSF ===== -->
  <line x1="140" y1="825" x2="140" y2="895" class="arrow"/>
  <line x1="385" y1="825" x2="385" y2="895" class="arrow"/>
  <line x1="645" y1="825" x2="645" y2="895" class="arrow"/>
  <line x1="1175" y1="825" x2="1175" y2="895" class="arrow"/>

  <rect x="40" y="900" width="200" height="65" class="box" fill="#fef2f2" stroke="#ef4444"/>
  <text x="140" y="923" class="text" fill="#991b1b">Blood Supply</text>
  <text x="140" y="940" class="text small" fill="#b91c1c">ICA + Vertebral → Circle of Willis</text>
  <text x="140" y="956" class="text small" fill="#b91c1c">ACA (leg), MCA (face/arm/speech), PCA (vision)</text>

  <rect x="270" y="900" width="230" height="65" class="box" fill="#fef2f2" stroke="#ef4444"/>
  <text x="385" y="923" class="text" fill="#991b1b">CSF Circulation</text>
  <text x="385" y="940" class="text small" fill="#b91c1c">Choroid plexus → Lateral → 3rd → 4th ventricle</text>
  <text x="385" y="956" class="text small" fill="#b91c1c">→ Subarachnoid space → Arachnoid granulations → SSS</text>

  <rect x="530" y="900" width="230" height="65" class="box" fill="#fef2f2" stroke="#ef4444"/>
  <text x="645" y="923" class="text" fill="#991b1b">Blood-Brain Barrier</text>
  <text x="645" y="940" class="text small" fill="#b91c1c">Tight junctions + Basement membrane</text>
  <text x="645" y="956" class="text small" fill="#b91c1c">+ Astrocytic end-feet | Absent in circumventricular organs</text>

  <rect x="790" y="900" width="230" height="65" class="box" fill="#fef2f2" stroke="#ef4444"/>
  <text x="905" y="923" class="text" fill="#991b1b">Staining &amp; Imaging</text>
  <text x="905" y="940" class="text small" fill="#b91c1c">Nissl (RER), Golgi (full neuron), Myelin, GFAP (astrocytes)</text>
  <text x="905" y="956" class="text small" fill="#b91c1c">MRI (soft tissue), CT (hemorrhage/bone), EEG, EMG, NCS, LP</text>

  <rect x="1050" y="900" width="250" height="65" class="box" fill="#fef2f2" stroke="#ef4444"/>
  <text x="1175" y="923" class="text" fill="#991b1b">Neurological Examination</text>
  <text x="1175" y="940" class="text small" fill="#b91c1c">Motor: tone, reflexes, Babinski, tremor type (resting vs action)</text>
  <text x="1175" y="956" class="text small" fill="#b91c1c">Sensory: dermatomal loss | Cognitive: aphasia, apraxia, memory</text>

  <!-- ===== LEVEL 8 — Functional Systems ===== -->
  <line x1="200" y1="965" x2="140" y2="1040" class="arrow"/>
  <line x1="500" y1="965" x2="470" y2="1040" class="arrow"/>
  <line x1="750" y1="965" x2="780" y2="1040" class="arrow"/>
  <line x1="1050" y1="965" x2="1090" y2="1040" class="arrow"/>

  <rect x="40" y="1045" width="320" height="72" class="box" fill="#f3e8ff" stroke="#9333ea"/>
  <text x="200" y="1068" class="text" fill="#6b21a8">Motor Systems</text>
  <text x="200" y="1086" class="text small" fill="#7e22ce">Corticospinal tract (voluntary, fine distal limb) — crosses at pyramidal decussation</text>
  <text x="200" y="1102" class="text small" fill="#7e22ce">Basal ganglia circuit (select movements) | Cerebellum (coordinate, real-time adjust)</text>
  <text x="200" y="1114" class="text small" fill="#7e22ce">α-Motor neuron = final common pathway (Sherrington) | Extrapyramidal system = discredited term</text>

  <rect x="390" y="1045" width="320" height="72" class="box" fill="#f3e8ff" stroke="#9333ea"/>
  <text x="550" y="1068" class="text" fill="#6b21a8">Sensory Systems (3-neuron chains)</text>
  <text x="550" y="1086" class="text small" fill="#7e22ce">DC-ML (touch/proprioception/vibration) → crosses in hindbrain</text>
  <text x="550" y="1102" class="text small" fill="#7e22ce">Spinothalamic (pain/temperature/crude touch) → crosses in spinal cord</text>
  <text x="550" y="1114" class="text small" fill="#7e22ce">Visual (retina → LGN → V1) | Auditory (cochlea → MGN → A1) | Vestibular | Olfactory (bypasses thalamus!)</text>

  <rect x="740" y="1045" width="320" height="72" class="box" fill="#f3e8ff" stroke="#9333ea"/>
  <text x="900" y="1068" class="text" fill="#6b21a8">Autonomic Nervous System</text>
  <text x="900" y="1086" class="text small" fill="#7e22ce">Two-neuron chain: preganglionic (CNS → ganglion) + postganglionic (ganglion → target)</text>
  <text x="900" y="1102" class="text small" fill="#7e22ce">Sympathetic: T1–L2, paravertebral chain, short pre/long post, NA (fight or flight)</text>
  <text x="900" y="1114" class="text small" fill="#7e22ce">Parasympathetic: CN 3,7,9,10 + S2–S4, near-organ ganglia, long pre/short post, ACh (rest &amp; digest)</text>

  <rect x="1090" y="1045" width="320" height="72" class="box" fill="#f3e8ff" stroke="#9333ea"/>
  <text x="1250" y="1068" class="text" fill="#6b21a8">Sleep, Memory &amp; Language</text>
  <text x="1250" y="1086" class="text small" fill="#7e22ce">Sleep: VLPO switch → inhibits arousal centers (LC, Raphe, Tegmental, TMN) | 90-min cycles</text>
  <text x="1250" y="1102" class="text small" fill="#7e22ce">Memory: Semantic (facts) vs Episodic (personal) | Hippocampus = formation; Cortex = storage</text>
  <text x="1250" y="1114" class="text small" fill="#7e22ce">Aphasia: Wernicke (receptive, BA22) vs Broca (expressive, BA44–45) | Apraxia (parietal/prefrontal)</text>

  <!-- ===== LEVEL 9 — Clinical ===== -->
  <line x1="200" y1="1117" x2="140" y2="1190" class="arrow"/>
  <line x1="550" y1="1117" x2="550" y2="1190" class="arrow"/>
  <line x1="900" y1="1117" x2="820" y2="1190" class="arrow"/>
  <line x1="1250" y1="1117" x2="1250" y2="1190" class="arrow"/>

  <!-- Clinical row 1 — 8 conditions -->
  <rect x="20" y="1195" width="180" height="60" class="box" fill="#fee2e2" stroke="#dc2626"/>
  <text x="110" y="1218" class="text" fill="#991b1b">Stroke</text>
  <text x="110" y="1236" class="text small" fill="#b91c1c">MCA most common | Internal capsule | "Time is brain"</text>

  <rect x="215" y="1195" width="180" height="60" class="box" fill="#fee2e2" stroke="#dc2626"/>
  <text x="305" y="1218" class="text" fill="#991b1b">Parkinson's Disease</text>
  <text x="305" y="1236" class="text small" fill="#b91c1c">Substantia nigra degeneration | Resting tremor | L-DOPA | DBS</text>

  <rect x="410" y="1195" width="180" height="60" class="box" fill="#fee2e2" stroke="#dc2626"/>
  <text x="500" y="1218" class="text" fill="#991b1b">Multiple Sclerosis</text>
  <text x="500" y="1236" class="text small" fill="#b91c1c">Autoimmune → oligodendrocytes | Relapsing-remitting | MRI plaques</text>

  <rect x="605" y="1195" width="180" height="60" class="box" fill="#fee2e2" stroke="#dc2626"/>
  <text x="695" y="1218" class="text" fill="#991b1b">Alzheimer's Disease</text>
  <text x="695" y="1236" class="text small" fill="#b91c1c">Hippocampus first | Aβ plaques (extracellular) | Tau tangles (intracellular)</text>

  <rect x="800" y="1195" width="180" height="60" class="box" fill="#fee2e2" stroke="#dc2626"/>
  <text x="890" y="1218" class="text" fill="#991b1b">Epilepsy</text>
  <text x="890" y="1236" class="text small" fill="#b91c1c">Cortical hyperexcitability | EEG diagnostic | Generalized vs TLE</text>

  <rect x="995" y="1195" width="180" height="60" class="box" fill="#fee2e2" stroke="#dc2626"/>
  <text x="1085" y="1218" class="text" fill="#991b1b">Spastic vs Flaccid</text>
  <text x="1085" y="1236" class="text small" fill="#b91c1c">CST damage: ↑tone, ↑reflexes, Babinski | MN damage: ↓tone, ↓reflexes, atrophy</text>

  <rect x="1190" y="1195" width="180" height="60" class="box" fill="#fee2e2" stroke="#dc2626"/>
  <text x="1280" y="1218" class="text" fill="#991b1b">Meningitis / Encephalitis</text>
  <text x="1280" y="1236" class="text small" fill="#b91c1c">CSF: elevated WBC | Neck stiffness | Bacterial vs Viral</text>

  <rect x="1385" y="1195" width="180" height="60" class="box" fill="#fee2e2" stroke="#dc2626"/>
  <text x="1475" y="1218" class="text" fill="#991b1b">Poliomyelitis</text>
  <text x="1475" y="1236" class="text small" fill="#b91c1c">Virus → motor neurons | Flaccid paralysis | Nearly eradicated by vaccine</text>

  <!-- Clinical row 2 — 8 conditions -->
  <rect x="20" y="1270" width="180" height="55" class="box" fill="#fee2e2" stroke="#dc2626"/>
  <text x="110" y="1290" class="text" fill="#991b1b">ALS (Motor Neuron Disease)</text>
  <text x="110" y="1308" class="text small" fill="#b91c1c">UMN + LMN degeneration | Fatal within ~3 years</text>

  <rect x="215" y="1270" width="180" height="55" class="box" fill="#fee2e2" stroke="#dc2626"/>
  <text x="305" y="1290" class="text" fill="#991b1b">Huntington's Disease</text>
  <text x="305" y="1308" class="text small" fill="#b91c1c">Autosomal dominant | CAG repeat | Striatum | Chorea | Onset 35–50</text>

  <rect x="410" y="1270" width="180" height="55" class="box" fill="#fee2e2" stroke="#dc2626"/>
  <text x="500" y="1290" class="text" fill="#991b1b">Cerebral Palsy</text>
  <text x="500" y="1308" class="text small" fill="#b91c1c">4 subtypes: Spastic, Ataxic, Athetoid, Mixed | Developmental damage</text>

  <rect x="605" y="1270" width="180" height="55" class="box" fill="#fee2e2" stroke="#dc2626"/>
  <text x="695" y="1290" class="text" fill="#991b1b">Schizophrenia / Depression</text>
  <text x="695" y="1308" class="text small" fill="#b91c1c">Dopamine/Serotonin | Hallucinations | SSRIs, CBT | Bipolar: Li, valproate</text>

  <rect x="800" y="1270" width="180" height="55" class="box" fill="#fee2e2" stroke="#dc2626"/>
  <text x="890" y="1290" class="text" fill="#991b1b">Wernicke-Korsakoff</text>
  <text x="890" y="1308" class="text small" fill="#b91c1c">Thiamine deficiency (alcohol) | Mammillary body atrophy | Confabulation</text>

  <rect x="995" y="1270" width="180" height="55" class="box" fill="#fee2e2" stroke="#dc2626"/>
  <text x="1085" y="1290" class="text" fill="#991b1b">CJD / Prion Disease</text>
  <text x="1085" y="1308" class="text small" fill="#b91c1c">PrPsc misfolding | Rapid dementia | Sporadic 1:1,000,000 | vCJD from BSE</text>

  <rect x="1190" y="1270" width="180" height="55" class="box" fill="#fee2e2" stroke="#dc2626"/>
  <text x="1280" y="1290" class="text" fill="#991b1b">ADHD / Autism / OCD</text>
  <text x="1280" y="1308" class="text small" fill="#b91c1c">Methylphenidate | ASD: NOT vaccines! | OCD: SSRIs ~60% respond</text>

  <rect x="1385" y="1270" width="180" height="55" class="box" fill="#fee2e2" stroke="#dc2626"/>
  <text x="1475" y="1290" class="text" fill="#991b1b">Spina Bifida / FAS</text>
  <text x="1475" y="1308" class="text small" fill="#b91c1c">Folate deficiency → NTD | Alcohol → FAS | Rubella → deaf/blind</text>

  <!-- Core principle -->
  <rect x="200" y="1350" width="1200" height="38" class="box" fill="#f1f5f9" stroke="#94a3b8"/>
  <text x="800" y="1374" class="text" fill="#334155" font-size="15">Core Principle: Histological Structure → Anatomical Organization → Functional Circuitry → Clinical Signs When Disrupted</text>
</svg>
